<svg width="41" height="41" viewBox="0 0 41 41" fill="none" xmlns="http://www.w3.org/2000/svg">
<path fill-rule="evenodd" clip-rule="evenodd" d="M13.6364 9.78571C12.6322 9.78571 11.8182 10.5852 11.8182 11.5714V29.4286C11.8182 30.4148 12.6322 31.2143 13.6364 31.2143H26.3636C27.3678 31.2143 28.1818 30.4148 28.1818 29.4286V11.5714C28.1818 10.5852 27.3678 9.78571 26.3636 9.78571H13.6364ZM10 11.5714C10 9.59898 11.6281 8 13.6364 8H26.3636C28.3719 8 30 9.59898 30 11.5714V29.4286C30 31.401 28.3719 33 26.3636 33H13.6364C11.6281 33 10 31.401 10 29.4286V11.5714ZM14.5455 13.3571C14.5455 12.864 14.9525 12.4643 15.4545 12.4643H24.5455C25.0475 12.4643 25.4545 12.864 25.4545 13.3571C25.4545 13.8503 25.0475 14.25 24.5455 14.25H15.4545C14.9525 14.25 14.5455 13.8503 14.5455 13.3571ZM14.5455 17.8214C14.5455 17.3283 14.9525 16.9286 15.4545 16.9286H24.5455C25.0475 16.9286 25.4545 17.3283 25.4545 17.8214C25.4545 18.3145 25.0475 18.7143 24.5455 18.7143H15.4545C14.9525 18.7143 14.5455 18.3145 14.5455 17.8214ZM14.5455 22.2857C14.5455 21.7926 14.9525 21.3929 15.4545 21.3929H20C20.5021 21.3929 20.9091 21.7926 20.9091 22.2857C20.9091 22.7788 20.5021 23.1786 20 23.1786H15.4545C14.9525 23.1786 14.5455 22.7788 14.5455 22.2857Z" fill="#094060"/>
</svg>
