<svg width="41" height="41" viewBox="0 0 41 41" fill="none" xmlns="http://www.w3.org/2000/svg">
<path fill-rule="evenodd" clip-rule="evenodd" d="M10.9427 12.7115C10.2031 12.7115 9.60346 13.3111 9.60346 14.0508V27.4436C9.60346 28.1833 10.2031 28.7829 10.9427 28.7829H29.6927C30.4324 28.7829 31.032 28.1833 31.032 27.4436V14.0508C31.032 13.3111 30.4324 12.7115 29.6927 12.7115H10.9427ZM7.81775 14.0508C7.81775 12.3249 9.21686 10.9258 10.9427 10.9258H29.6927C31.4186 10.9258 32.8177 12.3249 32.8177 14.0508V27.4436C32.8177 29.1695 31.4186 30.5686 29.6927 30.5686H10.9427C9.21686 30.5686 7.81775 29.1695 7.81775 27.4436V14.0508ZM11.5773 14.8419C11.88 14.4526 12.441 14.3825 12.8302 14.6853L20.3177 20.5089L27.8053 14.6853C28.1945 14.3825 28.7555 14.4526 29.0582 14.8419C29.361 15.2311 29.2909 15.7921 28.9016 16.0948L20.8659 22.3448C20.5435 22.5956 20.092 22.5956 19.7696 22.3448L11.7339 16.0948C11.3446 15.7921 11.2745 15.2311 11.5773 14.8419Z" fill="#094060"/>
</svg>
