<svg width="41" height="41" viewBox="0 0 41 41" fill="none" xmlns="http://www.w3.org/2000/svg">
<path d="M20.1495 8.24716C13.2466 8.24716 7.64954 13.9893 7.64954 21.0652C7.64954 26.7293 11.2321 31.5284 16.1986 33.2248C16.2683 33.24 16.3394 33.2475 16.4107 33.2472C16.8739 33.2472 17.0524 32.9068 17.0524 32.611C17.0524 32.3041 17.0413 31.5005 17.0357 30.4291C16.6222 30.526 16.1992 30.5765 15.7745 30.5797C13.3694 30.5797 12.8225 28.7103 12.8225 28.7103C12.2533 27.2315 11.433 26.8353 11.433 26.8353C10.3448 26.0708 11.4274 26.0485 11.5111 26.0485H11.5167C12.7723 26.1601 13.4308 27.3766 13.4308 27.3766C14.0558 28.4704 14.8928 28.7773 15.6406 28.7773C16.135 28.7674 16.6218 28.6533 17.0692 28.4425C17.1808 27.6166 17.5044 27.053 17.8616 26.7293C15.0882 26.4056 12.1696 25.3063 12.1696 20.3956C12.1696 18.9949 12.6551 17.851 13.4531 16.9581C13.3248 16.6344 12.8951 15.3286 13.5759 13.5652C13.6672 13.5434 13.7611 13.534 13.8549 13.5373C14.3069 13.5373 15.3281 13.7103 17.0134 14.8822C19.0611 14.3093 21.2268 14.3093 23.2745 14.8822C24.9598 13.7103 25.981 13.5373 26.433 13.5373C26.5269 13.534 26.6207 13.5434 26.712 13.5652C27.3928 15.3286 26.9632 16.6344 26.8348 16.9581C27.6328 17.8565 28.1183 19.0005 28.1183 20.3956C28.1183 25.3175 25.1942 26.4001 22.4096 26.7181C22.856 27.1143 23.2578 27.8956 23.2578 29.0898C23.2578 30.803 23.2411 32.1869 23.2411 32.6054C23.2411 32.9068 23.414 33.2472 23.8772 33.2472C23.9522 33.2475 24.027 33.24 24.1004 33.2248C29.0725 31.5284 32.6495 26.7237 32.6495 21.0652C32.6495 13.9893 27.0524 8.24716 20.1495 8.24716Z" fill="#094060"/>
</svg>
