<svg width="40" height="41" viewBox="0 0 40 41" fill="none" xmlns="http://www.w3.org/2000/svg">
<path fill-rule="evenodd" clip-rule="evenodd" d="M13.8053 16.433C12.6611 16.433 11.5638 16.8875 10.7547 17.6966C9.94568 18.5057 9.49116 19.603 9.49116 20.7472C9.49116 21.8914 9.94568 22.9887 10.7547 23.7977C11.5638 24.6068 12.6611 25.0613 13.8053 25.0613H17.3451C17.895 25.0613 18.3407 25.5071 18.3407 26.0569C18.3407 26.6067 17.895 27.0525 17.3451 27.0525H13.8053C12.133 27.0525 10.5293 26.3882 9.34679 25.2057C8.16432 24.0232 7.50001 22.4194 7.50001 20.7472C7.50001 19.0749 8.16432 17.4711 9.34679 16.2886C10.5293 15.1062 12.133 14.4419 13.8053 14.4419H17.3451C17.895 14.4419 18.3407 14.8876 18.3407 15.4374C18.3407 15.9873 17.895 16.433 17.3451 16.433H13.8053ZM21.6593 15.4374C21.6593 14.8876 22.105 14.4419 22.6549 14.4419H26.1947C27.867 14.4419 29.4708 15.1062 30.6532 16.2886C31.8357 17.4711 32.5 19.0749 32.5 20.7472C32.5 22.4194 31.8357 24.0232 30.6532 25.2057C29.4708 26.3882 27.867 27.0525 26.1947 27.0525H22.6549C22.105 27.0525 21.6593 26.6067 21.6593 26.0569C21.6593 25.5071 22.105 25.0613 22.6549 25.0613H26.1947C27.3389 25.0613 28.4362 24.6068 29.2453 23.7977C30.0543 22.9887 30.5089 21.8914 30.5089 20.7472C30.5089 19.603 30.0543 18.5057 29.2453 17.6966C28.4362 16.8875 27.3389 16.433 26.1947 16.433H22.6549C22.105 16.433 21.6593 15.9873 21.6593 15.4374ZM13.8767 20.7472C13.8767 20.1973 14.3224 19.7516 14.8722 19.7516H25.2384C25.7882 19.7516 26.234 20.1973 26.234 20.7472C26.234 21.297 25.7882 21.7427 25.2384 21.7427H14.8722C14.3224 21.7427 13.8767 21.297 13.8767 20.7472Z" fill="#094060"/>
</svg>
