<svg width="78" height="78" viewBox="0 0 78 78" fill="none" xmlns="http://www.w3.org/2000/svg">
<mask id="mask0" mask-type="alpha" maskUnits="userSpaceOnUse" x="0" y="0" width="78" height="78">
<circle cx="39.1078" cy="39.0538" r="38.871" fill="#C4C4C4"/>
</mask>
<g mask="url(#mask0)">
<path fill-rule="evenodd" clip-rule="evenodd" d="M3 39C3 30 30 3 39 3C48 3 75 30 75 39C75 48 48 75 39 75C30 75 3 48 3 39ZM39.0362 43.9015L33.3163 50.8L30.1306 48.4763L34.692 40.9243L26.8 37.6566L28.1033 33.9532L36.3573 35.9865L37.0813 27.2H40.9911L41.7151 35.9138L49.9691 33.9532L51.2 37.6566L43.308 40.9243L47.9418 48.4763L44.7561 50.8L39.0362 43.9015Z" fill="#333333"/>
</g>
</svg>
